HIERARCHY
ROOT Hips
{
	OFFSET 0.0000 0.0000 0.0000
	CHANNELS 6 Xposition Yposition Zposition Zrotation Xrotation Yrotation
	JOINT Ab
	{
		OFFSET -0.0000 8.1305 -0.0000
		CHANNELS 3 Zrotation Xrotation Yrotation
		JOINT Chest
		{
			OFFSET -0.0000 26.2902 -0.0000
			CHANNELS 3 Zrotation Xrotation Yrotation
			JOINT Neck
			{
				OFFSET -0.0000 26.2902 0.0000
				CHANNELS 3 Zrotation Xrotation Yrotation
				JOINT Head
				{
					OFFSET -0.0000 10.8167 0.0000
					CHANNELS 3 Zrotation Xrotation Yrotation
					End Site
					{
						OFFSET -0.0000 16.7167 0.0000
					}
				}
			}
			JOINT LeftCollar
			{
				OFFSET -0.0000 26.2902 0.0000
				CHANNELS 3 Zrotation Xrotation Yrotation
				JOINT LeftShoulder
				{
					OFFSET 19.6667 -0.0000 0.0000
					CHANNELS 3 Zrotation Xrotation Yrotation
					JOINT LeftElbow
					{
						OFFSET 27.2190 0.0000 0.0000
						CHANNELS 3 Zrotation Xrotation Yrotation
						JOINT LeftWrist
						{
							OFFSET 30.7431 0.0000 0.0000
							CHANNELS 3 Zrotation Xrotation Yrotation
							End Site
							{
								OFFSET 0.0000 -14.7500 0.0000
							}
						}
					}
				}
			}
			JOINT RightCollar
			{
				OFFSET -0.0000 26.2902 0.0000
				CHANNELS 3 Zrotation Xrotation Yrotation
				JOINT RightShoulder
				{
					OFFSET -19.6667 0.0000 0.0000
					CHANNELS 3 Zrotation Xrotation Yrotation
					JOINT RightElbow
					{
						OFFSET -27.2190 0.0000 0.0000
						CHANNELS 3 Zrotation Xrotation Yrotation
						JOINT RightWrist
						{
							OFFSET -30.7431 0.0000 0.0000
							CHANNELS 3 Zrotation Xrotation Yrotation
							End Site
							{
								OFFSET -0.0000 -14.7500 0.0000
							}
						}
					}
				}
			}
		}
	}
	JOINT LeftHip
	{
		OFFSET 11.8000 0.0000 0.0000
		CHANNELS 3 Zrotation Xrotation Yrotation
		JOINT LeftKnee
		{
			OFFSET -0.0000 -39.7832 0.0000
			CHANNELS 3 Zrotation Xrotation Yrotation
			JOINT LeftAnkle
			{
				OFFSET -0.0000 -41.7317 0.0000
				CHANNELS 3 Zrotation Xrotation Yrotation
				End Site
				{
					OFFSET -0.0000 -4.9167 16.7167
				}
			}
		}
	}
	JOINT RightHip
	{
		OFFSET -11.8000 0.0000 0.0000
		CHANNELS 3 Zrotation Xrotation Yrotation
		JOINT RightKnee
		{
			OFFSET -0.0000 -39.7832 0.0000
			CHANNELS 3 Zrotation Xrotation Yrotation
			JOINT RightAnkle
			{
				OFFSET -0.0000 -41.7317 0.0000
				CHANNELS 3 Zrotation Xrotation Yrotation
				End Site
				{
					OFFSET -0.0000 -4.9167 16.7167
				}
			}
		}
	}
}
MOTION
Frames: 7
Frame Time: 0.010000
-3.5986 88.7578 89.0327 358.2635 351.4438 179.8869 358.9215 349.1446 2.9279 1.1698 10.5728 2.9244 352.2376 347.5161 358.2114 2.5222 6.6146 358.9233 337.8323 357.1558 14.4173 318.6669 45.2269 357.2563 1.4389 359.2393 310.7716 85.5448 356.8392 338.0120 27.0554 355.9562 343.3102 33.1921 50.9741 16.0882 336.2398 347.8349 54.1591 265.2324 353.6872 1.3924 353.7515 333.9948 0.5274 357.2260 11.7894 0.7950 353.1506 351.1327 17.1108 1.0536 11.4296 5.3376 8.2038 17.4722 15.5972 352.4508 337.3400 322.9285 
-3.5102 88.5260 87.8707 358.2528 351.4489 179.6852 358.9024 348.9749 2.8659 0.9292 10.7595 2.8824 352.3607 347.4309 358.3400 2.4305 6.5592 359.0401 337.8432 357.1652 14.4136 318.8052 45.0661 357.0258 1.7474 359.1017 310.7018 86.2253 356.7303 338.3966 27.1026 355.9881 343.4705 34.1294 50.7300 15.1620 336.7723 348.2849 53.7163 265.2554 353.8422 1.6334 353.7471 334.0917 359.8913 357.0047 13.0572 0.7894 354.0725 351.3084 17.3871 0.9100 11.7806 5.2655 8.2839 18.3197 15.6344 353.2586 337.0074 323.5055 
-3.4573 88.3200 86.6699 358.1447 351.3922 179.4601 358.9559 348.6430 2.7616 0.4880 11.0552 2.8167 352.3701 347.3758 358.5230 2.4397 6.4751 359.2343 337.9312 357.1536 14.5559 318.9110 44.9257 356.7262 2.1498 358.8934 310.6560 86.4752 356.7245 338.5794 27.2420 356.0184 343.8569 35.3797 50.0296 13.7910 337.5817 348.8622 53.3851 265.7218 353.6738 3.0035 353.4717 334.1026 359.6167 357.1368 14.1400 0.3833 355.1729 352.1123 17.7154 0.6055 11.9945 5.7522 8.6317 19.1655 15.1279 353.4320 337.0536 323.9867 
-3.4584 88.1562 85.4108 357.8729 351.3423 179.2973 358.6992 348.3767 2.6926 0.2545 11.1118 2.7993 352.5208 347.6090 358.6648 2.1823 6.2686 359.3573 337.7875 357.1247 14.5564 319.0819 44.8342 356.6720 2.4138 358.7918 310.5554 86.8794 356.7421 338.8685 27.2732 356.0637 344.0244 36.3085 50.2161 12.7691 337.8115 349.0587 52.4675 266.4143 353.4697 3.3227 352.9647 334.3228 359.2671 357.4254 14.4775 359.4754 355.7497 353.2627 19.1505 0.0992 12.2545 5.9985 8.8626 20.0692 15.3247 353.8440 337.1563 324.0309 
-3.4235 88.0440 84.1452 357.4960 351.3970 179.0976 358.1992 348.2733 2.6200 0.1673 11.1896 2.7903 352.4779 347.4916 358.7688 2.1696 6.2561 359.4783 337.5199 357.0709 14.7036 319.6053 44.8386 356.2710 2.7168 358.6476 310.4378 86.9570 356.6970 339.1405 27.3651 356.0853 344.1542 37.1102 50.2991 11.8634 338.0880 349.4136 51.4883 266.8137 353.6730 3.7540 352.5273 334.4302 359.1186 357.5746 15.5599 358.3401 356.9323 353.9457 20.6269 359.5847 12.5060 5.9549 8.7828 21.1906 15.7541 354.9614 337.1113 324.3979 
-3.4036 87.9890 82.9220 357.0155 351.3629 179.0171 357.5758 348.2052 2.5108 0.0408 11.1390 2.7592 352.6132 347.3716 358.8173 1.9700 6.2532 359.5281 337.4478 357.0486 14.6650 319.4876 44.9574 356.2695 3.4067 358.2122 310.3556 87.0869 356.5767 339.5937 27.4459 356.0944 344.1493 38.0355 50.3028 10.9832 338.2932 349.7598 50.1558 267.3572 353.4437 4.3853 352.0453 334.0676 358.4107 357.3638 17.6016 357.9924 357.4169 353.8889 21.8977 359.0309 12.4580 5.8845 8.7119 22.6760 16.3048 356.1082 337.1537 324.4899 
-3.3967 87.9894 81.6960 356.4955 351.3449 179.0235 356.8986 348.1708 2.4135 359.9551 11.1066 2.7421 352.5942 347.2117 358.8305 1.9539 6.3262 359.5526 337.2493 357.0250 14.6151 319.9700 44.9257 355.8672 3.6171 358.2382 310.1852 87.6607 356.5415 339.9779 27.4445 356.0859 344.0987 39.1239 50.2565 9.9720 338.4126 350.0724 48.8566 267.6507 353.5794 4.4686 351.5271 333.8343 357.0958 356.8492 19.3428 359.1391 357.9808 353.8225 22.1055 358.4429 12.2845 5.9482 8.8122 24.2452 16.0647 357.5216 337.4596 325.1799 
